<mxfile host="app.diagrams.net" agent="Mozilla/5.0 (Windows NT 10.0; Win64; x64) AppleWebKit/537.36 (KHTML, like Gecko) Chrome/128.0.0.0 Safari/537.36 OPR/114.0.0.0" version="24.8.4">
  <diagram name="Página-1" id="cE6GJ_4vSdTwgGaDDsB1">
    <mxGraphModel dx="1865" dy="547" grid="1" gridSize="10" guides="1" tooltips="1" connect="1" arrows="1" fold="1" page="1" pageScale="1" pageWidth="827" pageHeight="1169" math="0" shadow="0">
      <root>
        <mxCell id="0" />
        <mxCell id="1" parent="0" />
        <mxCell id="XntP3FQlFa35B4sos3qi-34" value="" style="rounded=0;whiteSpace=wrap;html=1;" vertex="1" parent="1">
          <mxGeometry x="-50" y="280" width="460" height="270" as="geometry" />
        </mxCell>
        <mxCell id="XntP3FQlFa35B4sos3qi-6" style="edgeStyle=orthogonalEdgeStyle;rounded=0;orthogonalLoop=1;jettySize=auto;html=1;entryX=0;entryY=0.5;entryDx=0;entryDy=0;" edge="1" parent="1" source="XntP3FQlFa35B4sos3qi-3" target="XntP3FQlFa35B4sos3qi-5">
          <mxGeometry relative="1" as="geometry" />
        </mxCell>
        <mxCell id="XntP3FQlFa35B4sos3qi-3" value="Acessar a Home de Produtos" style="rounded=1;whiteSpace=wrap;html=1;" vertex="1" parent="1">
          <mxGeometry x="160" y="70" width="120" height="60" as="geometry" />
        </mxCell>
        <mxCell id="XntP3FQlFa35B4sos3qi-4" value="Cliente" style="text;html=1;align=center;verticalAlign=middle;resizable=0;points=[];autosize=1;strokeColor=none;fillColor=none;" vertex="1" parent="1">
          <mxGeometry x="30" y="120" width="60" height="30" as="geometry" />
        </mxCell>
        <mxCell id="XntP3FQlFa35B4sos3qi-9" value="" style="edgeStyle=orthogonalEdgeStyle;rounded=0;orthogonalLoop=1;jettySize=auto;html=1;" edge="1" parent="1" source="XntP3FQlFa35B4sos3qi-5" target="XntP3FQlFa35B4sos3qi-10">
          <mxGeometry relative="1" as="geometry">
            <mxPoint x="380" y="160" as="targetPoint" />
          </mxGeometry>
        </mxCell>
        <mxCell id="XntP3FQlFa35B4sos3qi-40" style="edgeStyle=orthogonalEdgeStyle;rounded=0;orthogonalLoop=1;jettySize=auto;html=1;fontFamily=Helvetica;fontSize=12;fontColor=default;" edge="1" parent="1" source="XntP3FQlFa35B4sos3qi-5" target="XntP3FQlFa35B4sos3qi-39">
          <mxGeometry relative="1" as="geometry" />
        </mxCell>
        <mxCell id="XntP3FQlFa35B4sos3qi-5" value="" style="rhombus;whiteSpace=wrap;html=1;" vertex="1" parent="1">
          <mxGeometry x="320" y="80" width="40" height="40" as="geometry" />
        </mxCell>
        <mxCell id="XntP3FQlFa35B4sos3qi-7" value="Está logado?" style="text;html=1;align=center;verticalAlign=middle;resizable=0;points=[];autosize=1;strokeColor=none;fillColor=none;" vertex="1" parent="1">
          <mxGeometry x="295" y="40" width="90" height="30" as="geometry" />
        </mxCell>
        <mxCell id="XntP3FQlFa35B4sos3qi-10" value="Login" style="ellipse;whiteSpace=wrap;html=1;aspect=fixed;" vertex="1" parent="1">
          <mxGeometry x="320" y="160" width="40" height="40" as="geometry" />
        </mxCell>
        <mxCell id="XntP3FQlFa35B4sos3qi-12" style="edgeStyle=orthogonalEdgeStyle;rounded=0;orthogonalLoop=1;jettySize=auto;html=1;" edge="1" parent="1" source="XntP3FQlFa35B4sos3qi-11" target="XntP3FQlFa35B4sos3qi-3">
          <mxGeometry relative="1" as="geometry" />
        </mxCell>
        <mxCell id="XntP3FQlFa35B4sos3qi-11" value="" style="ellipse;whiteSpace=wrap;html=1;aspect=fixed;" vertex="1" parent="1">
          <mxGeometry x="40" y="80" width="40" height="40" as="geometry" />
        </mxCell>
        <mxCell id="XntP3FQlFa35B4sos3qi-17" value="" style="edgeStyle=orthogonalEdgeStyle;rounded=0;orthogonalLoop=1;jettySize=auto;html=1;" edge="1" parent="1" source="XntP3FQlFa35B4sos3qi-14" target="XntP3FQlFa35B4sos3qi-16">
          <mxGeometry relative="1" as="geometry" />
        </mxCell>
        <mxCell id="XntP3FQlFa35B4sos3qi-14" value="Login" style="ellipse;whiteSpace=wrap;html=1;aspect=fixed;" vertex="1" parent="1">
          <mxGeometry x="160" y="300" width="40" height="40" as="geometry" />
        </mxCell>
        <mxCell id="XntP3FQlFa35B4sos3qi-21" value="" style="edgeStyle=orthogonalEdgeStyle;rounded=0;orthogonalLoop=1;jettySize=auto;html=1;" edge="1" parent="1" source="XntP3FQlFa35B4sos3qi-16" target="XntP3FQlFa35B4sos3qi-20">
          <mxGeometry relative="1" as="geometry" />
        </mxCell>
        <mxCell id="XntP3FQlFa35B4sos3qi-16" value="Acessar tela de Login" style="rounded=1;whiteSpace=wrap;html=1;" vertex="1" parent="1">
          <mxGeometry x="120" y="380" width="120" height="60" as="geometry" />
        </mxCell>
        <mxCell id="XntP3FQlFa35B4sos3qi-27" value="" style="edgeStyle=orthogonalEdgeStyle;rounded=0;orthogonalLoop=1;jettySize=auto;html=1;" edge="1" parent="1" source="XntP3FQlFa35B4sos3qi-20" target="XntP3FQlFa35B4sos3qi-24">
          <mxGeometry relative="1" as="geometry" />
        </mxCell>
        <mxCell id="XntP3FQlFa35B4sos3qi-28" value="" style="edgeStyle=orthogonalEdgeStyle;rounded=0;orthogonalLoop=1;jettySize=auto;html=1;" edge="1" parent="1" source="XntP3FQlFa35B4sos3qi-20" target="XntP3FQlFa35B4sos3qi-25">
          <mxGeometry relative="1" as="geometry" />
        </mxCell>
        <mxCell id="XntP3FQlFa35B4sos3qi-20" value="" style="rhombus;whiteSpace=wrap;html=1;" vertex="1" parent="1">
          <mxGeometry x="160" y="470" width="40" height="40" as="geometry" />
        </mxCell>
        <mxCell id="XntP3FQlFa35B4sos3qi-22" value="Já possui uma conta?" style="text;html=1;align=center;verticalAlign=middle;resizable=0;points=[];autosize=1;strokeColor=none;fillColor=none;" vertex="1" parent="1">
          <mxGeometry x="110" y="510" width="140" height="30" as="geometry" />
        </mxCell>
        <mxCell id="XntP3FQlFa35B4sos3qi-33" style="edgeStyle=orthogonalEdgeStyle;rounded=0;orthogonalLoop=1;jettySize=auto;html=1;entryX=1;entryY=0.5;entryDx=0;entryDy=0;" edge="1" parent="1" source="XntP3FQlFa35B4sos3qi-24" target="XntP3FQlFa35B4sos3qi-14">
          <mxGeometry relative="1" as="geometry">
            <Array as="points">
              <mxPoint x="340" y="320" />
            </Array>
          </mxGeometry>
        </mxCell>
        <mxCell id="XntP3FQlFa35B4sos3qi-24" value="Fazer Login" style="rounded=1;whiteSpace=wrap;html=1;" vertex="1" parent="1">
          <mxGeometry x="280" y="460" width="120" height="60" as="geometry" />
        </mxCell>
        <mxCell id="XntP3FQlFa35B4sos3qi-32" style="edgeStyle=orthogonalEdgeStyle;rounded=0;orthogonalLoop=1;jettySize=auto;html=1;entryX=0;entryY=0.5;entryDx=0;entryDy=0;" edge="1" parent="1" source="XntP3FQlFa35B4sos3qi-25" target="XntP3FQlFa35B4sos3qi-14">
          <mxGeometry relative="1" as="geometry">
            <Array as="points">
              <mxPoint x="20" y="320" />
            </Array>
          </mxGeometry>
        </mxCell>
        <mxCell id="XntP3FQlFa35B4sos3qi-25" value="Criar uma conta" style="rounded=1;whiteSpace=wrap;html=1;" vertex="1" parent="1">
          <mxGeometry x="-40" y="460" width="120" height="60" as="geometry" />
        </mxCell>
        <mxCell id="XntP3FQlFa35B4sos3qi-35" value="Sim" style="text;html=1;align=center;verticalAlign=middle;resizable=0;points=[];autosize=1;strokeColor=none;fillColor=none;" vertex="1" parent="1">
          <mxGeometry x="220" y="460" width="40" height="30" as="geometry" />
        </mxCell>
        <mxCell id="XntP3FQlFa35B4sos3qi-36" value="Não" style="text;html=1;align=center;verticalAlign=middle;resizable=0;points=[];autosize=1;strokeColor=none;fillColor=none;" vertex="1" parent="1">
          <mxGeometry x="95" y="460" width="50" height="30" as="geometry" />
        </mxCell>
        <mxCell id="XntP3FQlFa35B4sos3qi-37" value="Sim" style="text;html=1;align=center;verticalAlign=middle;resizable=0;points=[];autosize=1;strokeColor=none;fillColor=none;" vertex="1" parent="1">
          <mxGeometry x="400" y="70" width="40" height="30" as="geometry" />
        </mxCell>
        <mxCell id="XntP3FQlFa35B4sos3qi-38" value="Não" style="text;html=1;align=center;verticalAlign=middle;resizable=0;points=[];autosize=1;strokeColor=none;fillColor=none;" vertex="1" parent="1">
          <mxGeometry x="340" y="120" width="50" height="30" as="geometry" />
        </mxCell>
        <mxCell id="XntP3FQlFa35B4sos3qi-42" value="" style="edgeStyle=orthogonalEdgeStyle;rounded=0;orthogonalLoop=1;jettySize=auto;html=1;fontFamily=Helvetica;fontSize=12;fontColor=default;" edge="1" parent="1" source="XntP3FQlFa35B4sos3qi-39" target="XntP3FQlFa35B4sos3qi-41">
          <mxGeometry relative="1" as="geometry" />
        </mxCell>
        <mxCell id="XntP3FQlFa35B4sos3qi-39" value="Acessar tela de Detalhes de um Produto" style="rounded=1;whiteSpace=wrap;html=1;" vertex="1" parent="1">
          <mxGeometry x="480" y="70" width="120" height="60" as="geometry" />
        </mxCell>
        <mxCell id="XntP3FQlFa35B4sos3qi-46" value="" style="edgeStyle=orthogonalEdgeStyle;rounded=0;orthogonalLoop=1;jettySize=auto;html=1;fontFamily=Helvetica;fontSize=12;fontColor=default;" edge="1" parent="1" source="XntP3FQlFa35B4sos3qi-41" target="XntP3FQlFa35B4sos3qi-43">
          <mxGeometry relative="1" as="geometry" />
        </mxCell>
        <mxCell id="XntP3FQlFa35B4sos3qi-41" value="Adicionar Produtos ao Carrinho" style="whiteSpace=wrap;html=1;rounded=1;" vertex="1" parent="1">
          <mxGeometry x="680" y="70" width="120" height="60" as="geometry" />
        </mxCell>
        <mxCell id="XntP3FQlFa35B4sos3qi-47" value="" style="edgeStyle=orthogonalEdgeStyle;rounded=0;orthogonalLoop=1;jettySize=auto;html=1;fontFamily=Helvetica;fontSize=12;fontColor=default;" edge="1" parent="1" source="XntP3FQlFa35B4sos3qi-43" target="XntP3FQlFa35B4sos3qi-44">
          <mxGeometry relative="1" as="geometry" />
        </mxCell>
        <mxCell id="XntP3FQlFa35B4sos3qi-49" value="" style="edgeStyle=orthogonalEdgeStyle;rounded=0;orthogonalLoop=1;jettySize=auto;html=1;fontFamily=Helvetica;fontSize=12;fontColor=default;" edge="1" parent="1" source="XntP3FQlFa35B4sos3qi-43" target="XntP3FQlFa35B4sos3qi-48">
          <mxGeometry relative="1" as="geometry" />
        </mxCell>
        <mxCell id="XntP3FQlFa35B4sos3qi-43" value="" style="rhombus;whiteSpace=wrap;html=1;" vertex="1" parent="1">
          <mxGeometry x="720" y="200" width="40" height="40" as="geometry" />
        </mxCell>
        <mxCell id="XntP3FQlFa35B4sos3qi-44" value="Login" style="ellipse;whiteSpace=wrap;html=1;aspect=fixed;" vertex="1" parent="1">
          <mxGeometry x="600" y="200" width="40" height="40" as="geometry" />
        </mxCell>
        <mxCell id="XntP3FQlFa35B4sos3qi-45" value="Está logado?" style="text;html=1;align=center;verticalAlign=middle;resizable=0;points=[];autosize=1;strokeColor=none;fillColor=none;" vertex="1" parent="1">
          <mxGeometry x="760" y="205" width="90" height="30" as="geometry" />
        </mxCell>
        <mxCell id="XntP3FQlFa35B4sos3qi-53" value="" style="edgeStyle=orthogonalEdgeStyle;rounded=0;orthogonalLoop=1;jettySize=auto;html=1;fontFamily=Helvetica;fontSize=12;fontColor=default;" edge="1" parent="1" source="XntP3FQlFa35B4sos3qi-48" target="XntP3FQlFa35B4sos3qi-52">
          <mxGeometry relative="1" as="geometry" />
        </mxCell>
        <mxCell id="XntP3FQlFa35B4sos3qi-55" value="" style="edgeStyle=orthogonalEdgeStyle;rounded=0;orthogonalLoop=1;jettySize=auto;html=1;fontFamily=Helvetica;fontSize=12;fontColor=default;" edge="1" parent="1" source="XntP3FQlFa35B4sos3qi-48" target="XntP3FQlFa35B4sos3qi-54">
          <mxGeometry relative="1" as="geometry" />
        </mxCell>
        <mxCell id="XntP3FQlFa35B4sos3qi-57" value="" style="edgeStyle=orthogonalEdgeStyle;rounded=0;orthogonalLoop=1;jettySize=auto;html=1;fontFamily=Helvetica;fontSize=12;fontColor=default;" edge="1" parent="1" source="XntP3FQlFa35B4sos3qi-48" target="XntP3FQlFa35B4sos3qi-56">
          <mxGeometry relative="1" as="geometry" />
        </mxCell>
        <mxCell id="XntP3FQlFa35B4sos3qi-48" value="Acessar tela do Carrinho" style="rounded=1;whiteSpace=wrap;html=1;" vertex="1" parent="1">
          <mxGeometry x="680" y="310" width="120" height="60" as="geometry" />
        </mxCell>
        <mxCell id="XntP3FQlFa35B4sos3qi-50" value="Não" style="text;html=1;align=center;verticalAlign=middle;resizable=0;points=[];autosize=1;strokeColor=none;fillColor=none;" vertex="1" parent="1">
          <mxGeometry x="660" y="220" width="50" height="30" as="geometry" />
        </mxCell>
        <mxCell id="XntP3FQlFa35B4sos3qi-51" value="Sim" style="text;html=1;align=center;verticalAlign=middle;resizable=0;points=[];autosize=1;strokeColor=none;fillColor=none;" vertex="1" parent="1">
          <mxGeometry x="740" y="250" width="40" height="30" as="geometry" />
        </mxCell>
        <mxCell id="XntP3FQlFa35B4sos3qi-52" value="Aplicar um Cupom&amp;nbsp;&lt;div&gt;de Desconto&lt;/div&gt;" style="rounded=1;whiteSpace=wrap;html=1;" vertex="1" parent="1">
          <mxGeometry x="480" y="310" width="120" height="60" as="geometry" />
        </mxCell>
        <mxCell id="XntP3FQlFa35B4sos3qi-54" value="Adicionar, Remover ou Editar itens do carrinho" style="whiteSpace=wrap;html=1;rounded=1;" vertex="1" parent="1">
          <mxGeometry x="880" y="310" width="120" height="60" as="geometry" />
        </mxCell>
        <mxCell id="XntP3FQlFa35B4sos3qi-59" value="" style="edgeStyle=orthogonalEdgeStyle;rounded=0;orthogonalLoop=1;jettySize=auto;html=1;fontFamily=Helvetica;fontSize=12;fontColor=default;" edge="1" parent="1" source="XntP3FQlFa35B4sos3qi-56" target="XntP3FQlFa35B4sos3qi-58">
          <mxGeometry relative="1" as="geometry" />
        </mxCell>
        <mxCell id="XntP3FQlFa35B4sos3qi-56" value="Fazer Checkout do Carrinho" style="rounded=1;whiteSpace=wrap;html=1;" vertex="1" parent="1">
          <mxGeometry x="680" y="430" width="120" height="60" as="geometry" />
        </mxCell>
        <mxCell id="XntP3FQlFa35B4sos3qi-61" value="" style="edgeStyle=orthogonalEdgeStyle;rounded=0;orthogonalLoop=1;jettySize=auto;html=1;fontFamily=Helvetica;fontSize=12;fontColor=default;" edge="1" parent="1" source="XntP3FQlFa35B4sos3qi-58" target="XntP3FQlFa35B4sos3qi-60">
          <mxGeometry relative="1" as="geometry" />
        </mxCell>
        <mxCell id="XntP3FQlFa35B4sos3qi-58" value="Preencher dados de pagamento" style="rounded=1;whiteSpace=wrap;html=1;" vertex="1" parent="1">
          <mxGeometry x="680" y="550" width="120" height="60" as="geometry" />
        </mxCell>
        <mxCell id="XntP3FQlFa35B4sos3qi-63" value="" style="edgeStyle=orthogonalEdgeStyle;rounded=0;orthogonalLoop=1;jettySize=auto;html=1;fontFamily=Helvetica;fontSize=12;fontColor=default;" edge="1" parent="1" source="XntP3FQlFa35B4sos3qi-60" target="XntP3FQlFa35B4sos3qi-62">
          <mxGeometry relative="1" as="geometry" />
        </mxCell>
        <mxCell id="XntP3FQlFa35B4sos3qi-67" value="" style="edgeStyle=orthogonalEdgeStyle;rounded=0;orthogonalLoop=1;jettySize=auto;html=1;fontFamily=Helvetica;fontSize=12;fontColor=default;" edge="1" parent="1" source="XntP3FQlFa35B4sos3qi-60" target="XntP3FQlFa35B4sos3qi-66">
          <mxGeometry relative="1" as="geometry" />
        </mxCell>
        <mxCell id="XntP3FQlFa35B4sos3qi-60" value="Fazer um Pedido" style="rounded=1;whiteSpace=wrap;html=1;" vertex="1" parent="1">
          <mxGeometry x="680" y="660" width="120" height="60" as="geometry" />
        </mxCell>
        <mxCell id="XntP3FQlFa35B4sos3qi-62" value="Acompanhar status do Pedido na tela de Pedidos" style="rounded=1;whiteSpace=wrap;html=1;" vertex="1" parent="1">
          <mxGeometry x="680" y="760" width="120" height="60" as="geometry" />
        </mxCell>
        <mxCell id="XntP3FQlFa35B4sos3qi-69" value="" style="edgeStyle=orthogonalEdgeStyle;rounded=0;orthogonalLoop=1;jettySize=auto;html=1;fontFamily=Helvetica;fontSize=12;fontColor=default;" edge="1" parent="1" source="XntP3FQlFa35B4sos3qi-66" target="XntP3FQlFa35B4sos3qi-68">
          <mxGeometry relative="1" as="geometry" />
        </mxCell>
        <mxCell id="XntP3FQlFa35B4sos3qi-66" value="Aprovar Pagamento" style="shape=process;whiteSpace=wrap;html=1;backgroundOutline=1;rounded=0;strokeColor=default;align=center;verticalAlign=middle;fontFamily=Helvetica;fontSize=12;fontColor=default;fillColor=default;" vertex="1" parent="1">
          <mxGeometry x="480" y="660" width="120" height="60" as="geometry" />
        </mxCell>
        <mxCell id="XntP3FQlFa35B4sos3qi-68" value="Enviar notificação no Email do Cliente" style="shape=process;whiteSpace=wrap;html=1;backgroundOutline=1;rounded=0;strokeColor=default;align=center;verticalAlign=middle;fontFamily=Helvetica;fontSize=12;fontColor=default;fillColor=default;" vertex="1" parent="1">
          <mxGeometry x="280" y="660" width="120" height="60" as="geometry" />
        </mxCell>
      </root>
    </mxGraphModel>
  </diagram>
</mxfile>
